<svg width="168" height="58" viewBox="0 0 168 58" fill="none" xmlns="http://www.w3.org/2000/svg">
<g clip-path="url(#clip0_315_644)">
<path d="M21.2927 0.500918C26.4172 0.566852 30.8368 2.3141 34.4843 5.87454C38.7808 10.0723 43.055 14.2811 47.3403 18.4899C47.799 18.9405 48.1123 19.468 48.2018 20.1053C48.3585 21.2152 47.799 22.2921 46.792 22.8196C45.785 23.3471 44.5655 23.2042 43.7151 22.457C43.5808 22.3361 43.4466 22.2042 43.3123 22.0723C39.0941 17.9295 34.8648 13.7756 30.6466 9.63279C28.5095 7.54488 25.9361 6.3141 22.9487 5.92949C16.0787 5.06136 9.6228 9.61081 8.34727 16.2811C7.48573 20.7756 8.70532 24.7317 11.9724 27.9954C16.2466 32.2592 20.5878 36.468 24.8955 40.6987C25.6676 41.457 26.5738 41.7317 27.6144 41.402C29.4494 40.8306 30.0088 38.5778 28.655 37.2042C27.8941 36.435 27.1221 35.6877 26.3501 34.9295C25.9585 34.5559 25.7011 34.1053 25.5892 33.5778C25.3319 32.435 25.8466 31.2921 26.8648 30.6987C27.8606 30.1273 29.1361 30.2372 30.02 30.9844C30.1095 31.0614 30.1878 31.1383 30.2662 31.2152C30.9934 31.9295 31.7207 32.6438 32.448 33.3581C34.2494 35.1383 35.0326 37.2921 34.8088 39.7976C34.5067 43.1603 31.8326 46.0723 28.4536 46.6987C25.6787 47.2152 23.2172 46.5449 21.2032 44.5888C16.7389 40.2482 12.2969 35.8965 7.88853 31.5009C5.11371 28.7427 3.43538 25.391 2.88713 21.5669C2.04797 15.7097 3.65916 10.5559 7.77664 6.2152C10.585 3.25916 14.0759 1.45696 18.1487 0.753665C19.1892 0.577841 20.241 0.489929 21.2927 0.500918Z" fill="#1363DF"/>
<path d="M27.279 57.5008C21.8188 57.4349 17.4105 55.6656 13.7629 52.1382C11.3573 49.8195 8.99646 47.4678 6.61325 45.1272C5.70695 44.2371 5.49437 43.0503 6.03143 41.9843C6.82584 40.4019 8.95171 40.0063 10.2832 41.1931C10.3727 41.27 10.4622 41.358 10.5517 41.4459C12.8678 43.7206 15.1951 46.0063 17.5112 48.281C19.3797 50.1162 21.5951 51.347 24.1909 51.8744C31.4972 53.358 38.1993 48.8415 39.7769 42.2371C40.8398 37.7755 39.7545 33.7865 36.644 30.347C36.5657 30.2591 36.4762 30.1711 36.3867 30.0832C32.0342 25.8085 27.6818 21.5338 23.3293 17.2591C22.837 16.7755 22.2552 16.4788 21.5615 16.4459C20.4986 16.3909 19.5251 16.9733 19.0776 17.9184C18.63 18.8744 18.8091 19.9843 19.5811 20.7536C20.4091 21.5777 21.2482 22.3909 22.0762 23.2041C22.2216 23.347 22.3783 23.4898 22.5237 23.6437C23.307 24.4898 23.5195 25.4569 23.072 26.5118C22.6356 27.5558 21.7853 28.0942 20.6552 28.1602C19.9167 28.1931 19.2566 27.9514 18.7307 27.4459C17.6566 26.4129 16.5601 25.4019 15.5643 24.314C13.472 22.0393 12.8678 19.3799 13.8524 16.4788C14.837 13.5997 16.9405 11.8195 19.9839 11.2481C22.7251 10.7426 25.1419 11.5008 27.1223 13.4349C31.4748 17.6766 35.8049 21.9404 40.1349 26.2041C42.9098 28.9404 44.6888 32.2041 45.3042 36.0173C46.3223 42.2481 44.5769 47.6766 40.0678 52.1821C37.2146 55.0283 33.7125 56.6986 29.6958 57.292C28.7895 57.4239 27.872 57.4569 27.3014 57.5008H27.279Z" fill="#F86F03"/>
<path d="M2.70769 40.1695C1.1972 40.1695 0 38.9937 0 37.5102C0 36.0376 1.21958 34.8398 2.71888 34.8398C4.20699 34.8398 5.43776 36.0486 5.43776 37.5212C5.43776 38.9937 4.21818 40.1805 2.70769 40.1805V40.1695Z" fill="#F86F03"/>
<path d="M96.9508 27.4442H88.4585V24.3453H101.113C101.113 24.4222 101.135 24.4991 101.124 24.587C101.068 25.8398 100.878 27.0595 100.319 28.1914C98.8641 31.1145 96.5144 32.9057 93.2361 33.4332C90.9089 33.8178 88.6935 33.4112 86.6795 32.1694C84.6655 30.9167 83.155 29.2354 82.5508 26.9277C81.6333 23.4442 82.4949 20.4002 85.2138 17.9387C87.2725 16.0705 89.734 15.3233 92.52 15.5211C95.127 15.7079 97.2529 16.8068 98.9648 18.7409C99.4683 19.3013 99.8711 19.9277 100.151 20.62C100.285 20.9606 100.431 21.2903 100.576 21.653C100.453 21.653 100.375 21.6749 100.307 21.6749C99.2781 21.6749 98.2487 21.6749 97.2193 21.6749C97.0068 21.6749 96.8837 21.609 96.783 21.4222C95.8096 19.5431 93.2809 18.3123 90.8753 18.6639C88.369 19.0266 86.6347 20.4002 85.8179 22.7409C84.6767 26.0266 86.8585 29.609 90.327 30.2903C92.7662 30.7738 94.7914 30.0486 96.4473 28.2574C96.6487 28.0376 96.8054 27.7738 96.9844 27.5321C96.962 27.4991 96.9508 27.4771 96.9284 27.4442H96.9508Z" fill="#212121"/>
<path d="M118.668 24.5663C118.668 19.6542 122.517 16.2916 126.232 15.6542C131.177 14.8081 134.948 17.4344 136.604 20.7531C137.331 22.2037 137.532 23.7531 137.409 25.3685C137.107 29.4674 133.549 32.7531 129.879 33.4125C124.598 34.3465 120.771 31.2037 119.362 28.0169C118.881 26.918 118.679 25.7641 118.668 24.5773V24.5663ZM134.109 24.5553C134.198 21.3575 131.267 18.6212 128.1 18.5993C124.867 18.5773 121.991 21.2696 121.991 24.6212C121.991 27.7861 124.9 30.4564 128.044 30.4564C131.323 30.4564 134.187 27.6762 134.097 24.5553H134.109Z" fill="#212121"/>
<path d="M117.001 33.2911H116.676C115.535 33.2911 114.394 33.2911 113.264 33.2911C112.995 33.2911 112.838 33.2032 112.682 33.0054C110.97 30.7527 109.258 28.5109 107.546 26.2582C107.445 26.1263 107.334 25.9944 107.244 25.8626C107.211 25.8626 107.199 25.8626 107.188 25.8626C107.188 25.8626 107.166 25.8736 107.166 25.8846C107.166 25.8846 107.166 25.9065 107.166 25.9175C107.166 28.3351 107.155 30.7527 107.143 33.1813C107.143 33.1922 107.143 33.2032 107.143 33.2142C106.886 33.2911 104.57 33.3241 103.899 33.2582C103.82 32.9944 103.809 16.2252 103.887 15.7637C103.999 15.7637 104.122 15.7637 104.234 15.7637C105.924 15.7637 107.602 15.7637 109.292 15.7637C110.299 15.7637 111.306 15.8296 112.268 16.1373C114.55 16.8516 116.027 18.3021 116.408 20.6758C116.967 24.1373 114.83 26.2802 112.671 27.0274C112.592 27.0494 112.514 27.0933 112.391 27.1373C113.957 29.1703 115.513 31.1813 117.068 33.1922C117.057 33.2142 117.045 33.2472 117.034 33.2692L117.001 33.2911ZM107.166 24.467C108.285 24.434 109.359 24.423 110.433 24.3571C111.004 24.3241 111.541 24.1153 112.033 23.8186C112.615 23.467 112.973 22.9725 113.073 22.3021C113.118 22.0164 113.141 21.7197 113.129 21.434C113.085 20.5439 112.682 19.8626 111.876 19.423C111.473 19.2032 111.048 19.0494 110.59 18.9835C109.482 18.8406 108.363 18.9065 107.255 18.9065C107.233 18.9065 107.211 18.9285 107.166 18.9505V24.467Z" fill="#212121"/>
<path d="M140.062 15.7852H143.396V16.2247C143.396 19.6533 143.396 23.0819 143.396 26.5104C143.396 27.1038 143.463 27.7082 143.598 28.2797C143.922 29.6423 145.063 30.6203 146.798 30.4225C148.073 30.2797 149.002 29.4225 149.237 28.1698C149.349 27.5983 149.405 27.0159 149.405 26.4335C149.416 23.0379 149.405 19.6423 149.405 16.2577C149.405 16.1148 149.405 15.972 149.405 15.8071H152.717C152.717 15.8841 152.739 15.961 152.739 16.0269C152.739 19.6533 152.739 23.2797 152.728 26.906C152.728 28.1038 152.504 29.2797 151.944 30.3676C150.949 32.2907 149.36 33.3566 147.167 33.5544C145.891 33.6753 144.661 33.5544 143.508 32.9939C141.796 32.1808 140.812 30.7961 140.342 29.0269C140.129 28.2357 140.051 27.4225 140.051 26.6093C140.051 23.1478 140.051 19.6753 140.051 16.2137C140.051 16.0928 140.051 15.972 140.051 15.8181L140.062 15.7852Z" fill="#212121"/>
<path d="M69.6506 21.4557H66.3164C66.3164 21.126 66.3275 20.8183 66.3164 20.4996C66.2828 19.6315 65.6227 18.8623 64.7723 18.6645C63.7206 18.4117 62.5793 19.0381 62.3443 20.0271C62.1094 21.0051 62.4562 21.5326 63.1275 21.8842C63.4968 22.082 63.8996 22.2139 64.2912 22.3458C64.9737 22.5766 65.6674 22.7524 66.3387 23.0051C66.7751 23.17 67.2003 23.3897 67.5919 23.6315C69.2143 24.6645 70.031 26.137 70.0422 28.0381C70.0422 30.4227 68.5989 32.5106 66.294 33.2359C64.0674 33.9392 61.9751 33.6205 60.1961 32.0271C59.0884 31.0381 58.5961 29.7634 58.5178 28.3238C58.4954 27.9502 58.5178 27.5766 58.5178 27.181H61.8073C61.8185 27.4227 61.8296 27.6645 61.852 27.9062C61.8968 28.2799 61.9192 28.6645 62.0199 29.0161C62.2101 29.7194 62.6912 30.17 63.4185 30.3348C63.8772 30.4447 64.3471 30.4777 64.8171 30.3897C66.1262 30.148 66.9541 28.9062 66.6632 27.6315C66.5513 27.115 66.238 26.7304 65.8129 26.4337C65.3765 26.126 64.8842 25.9282 64.3695 25.7634C63.7653 25.5766 63.1611 25.4007 62.5681 25.1809C62.1541 25.0271 61.7401 24.8513 61.3485 24.6535C59.9276 23.9282 59.1555 22.7744 58.9765 21.2139C58.6744 18.7194 60.1513 16.4557 62.6017 15.7304C64.6492 15.126 66.9429 15.5546 68.4758 17.3348C69.1919 18.17 69.5835 19.148 69.6506 20.2359C69.673 20.6205 69.6506 21.0161 69.6506 21.4447V21.4557Z" fill="#212121"/>
<path d="M158.959 26.9183V33.2589H155.658V15.7974C155.748 15.7974 155.848 15.7754 155.938 15.7754C157.806 15.7754 159.675 15.7754 161.544 15.7754C162.483 15.7754 163.423 15.8853 164.318 16.215C166.232 16.9292 167.485 18.215 167.876 20.2259C168.067 21.182 168.033 22.149 167.731 23.0721C167.138 24.8853 165.851 26.0062 164.039 26.5666C163.11 26.8523 162.137 26.8963 161.174 26.9183C160.581 26.9183 159.988 26.9183 159.395 26.9183H158.97H158.959ZM158.981 23.7864C160.178 23.7644 161.342 23.8743 162.495 23.6985C164.106 23.4457 164.945 22.193 164.576 20.6765C164.453 20.171 164.162 19.7754 163.725 19.4787C163.199 19.127 162.618 18.9292 161.991 18.9182C161.051 18.8963 160.111 18.9073 159.171 18.8963C159.116 18.8963 159.048 18.9073 158.97 18.9182V23.7864H158.981Z" fill="#212121"/>
<path d="M79.7753 24.906V27.906C79.5068 27.9939 72.6816 28.0159 72.1445 27.939V24.928C72.3907 24.8511 79.2494 24.8181 79.7753 24.906Z" fill="#212121"/>
<path d="M120.851 38.5543C120.303 39.8181 119.766 41.0928 119.218 42.3456C118.86 42.4005 118.848 42.4005 118.725 42.1038C118.278 41.0488 117.83 39.9939 117.383 38.939C117.338 38.8181 117.271 38.7082 117.181 38.5983C117.114 39.0049 117.136 39.4115 117.125 39.8181C117.125 40.2467 117.125 40.6642 117.125 41.0928C117.125 41.5214 117.125 41.917 117.125 42.3456C116.98 42.3456 116.868 42.3565 116.778 42.3675C116.7 42.0818 116.678 38.5983 116.745 37.9829C116.846 37.9829 116.946 37.9609 117.058 37.9609C117.159 37.9609 117.26 37.9609 117.371 37.9609C117.908 39.1917 118.446 40.4225 119.016 41.7302C119.274 41.2796 119.419 40.862 119.609 40.4664C119.799 40.0598 119.967 39.6423 120.146 39.2247C120.325 38.8071 120.504 38.4005 120.694 37.9829H121.355V42.3456C121.232 42.3456 121.131 42.3675 120.974 42.3785C120.952 41.0928 120.974 39.8291 120.963 38.5763C120.929 38.5653 120.896 38.5543 120.862 38.5434L120.851 38.5543Z" fill="#212121"/>
<path d="M78.7578 42.3799V37.9953C79.4739 37.9953 80.1788 37.9074 80.8725 38.0942C81.9019 38.3579 82.5061 39.1491 82.5061 40.2151C82.5061 41.248 81.8907 42.0282 80.8725 42.292C80.1788 42.4678 79.4739 42.4019 78.7578 42.3909V42.3799ZM79.1718 41.9843C79.6641 41.9843 80.1117 42.0282 80.548 41.9843C81.4207 41.8854 82.0361 41.2151 82.0921 40.3799C82.1592 39.4348 81.6781 38.6876 80.7942 38.4788C80.369 38.3799 79.9103 38.3909 79.4739 38.3579C79.3844 38.3579 79.2837 38.3799 79.183 38.3909V41.9953L79.1718 41.9843Z" fill="#212121"/>
<path d="M138.215 37.9839C138.897 37.9839 139.568 37.918 140.217 38.0609C141.28 38.2916 141.94 39.1158 141.952 40.1817C141.952 41.2477 141.291 42.0609 140.228 42.3026C139.568 42.4565 138.908 42.3905 138.248 42.3795C138.17 42.0938 138.136 38.5883 138.215 37.9839ZM138.617 41.9839C139.087 41.9839 139.501 42.0169 139.915 41.9839C140.766 41.907 141.37 41.3136 141.515 40.4565C141.649 39.6543 141.235 38.8631 140.486 38.5444C139.893 38.2916 139.266 38.3246 138.606 38.3466V41.9839H138.617Z" fill="#212121"/>
<path d="M152.973 41.357C152.973 41.357 153.085 41.357 153.141 41.357C153.186 41.357 153.242 41.368 153.287 41.379C153.119 42.0933 152.235 42.6097 151.429 42.4559C150.478 42.2801 149.874 41.4449 150.02 40.4999C150.154 39.5878 151.027 38.9724 151.989 39.0933C152.794 39.1922 153.533 40.0493 153.41 40.9065C152.425 40.9065 151.429 40.9064 150.445 40.9174C150.422 41.4339 150.78 41.8955 151.284 42.0713C151.911 42.2801 152.459 42.0603 152.951 41.379L152.973 41.357ZM153.007 40.5218C152.951 39.8405 152.369 39.368 151.653 39.401C151.015 39.4229 150.467 39.9284 150.467 40.5218H153.007Z" fill="#212121"/>
<path d="M134.49 40.8961H131.525C131.491 41.4016 131.838 41.8631 132.353 42.0499C132.979 42.2697 133.55 42.0389 134.02 41.3576H134.333C134.21 42.0499 133.315 42.5774 132.521 42.4565C131.57 42.3027 130.943 41.4675 131.066 40.5334C131.156 39.8192 131.838 38.951 133.002 39.0719C133.83 39.1598 134.579 40.0279 134.468 40.8961H134.49ZM131.514 40.5225H134.076C134.009 39.8741 133.483 39.4126 132.823 39.4016C132.14 39.4016 131.603 39.8301 131.503 40.5225H131.514Z" fill="#212121"/>
<path d="M101.013 40.8947H98.0816C98.0257 41.3892 98.3837 41.8727 98.8984 42.0485C99.525 42.2683 100.096 42.0485 100.566 41.3562H100.912C100.868 41.609 100.722 41.7848 100.566 41.9386C99.9613 42.554 99.0215 42.6419 98.339 42.1474C97.6341 41.6419 97.3991 40.7189 97.8019 39.9716C98.2047 39.2244 99.0774 38.8617 99.883 39.1364C100.633 39.3892 101.147 40.1584 101.013 40.8837V40.8947ZM100.621 40.5211C100.554 39.8178 99.9502 39.3562 99.2229 39.4002C98.6075 39.4441 98.0704 39.9606 98.0816 40.5211H100.621Z" fill="#212121"/>
<path d="M91.0219 40.896C91.0219 41.6432 91.7716 42.2366 92.4989 42.1048C92.8793 42.0388 93.1926 41.863 93.4052 41.5333C93.5394 41.3245 93.5506 41.3245 93.8527 41.3795C93.6625 42.1267 92.7674 42.6103 91.9171 42.4234C91.0219 42.2256 90.4289 41.3575 90.5968 40.4784C90.7758 39.5223 91.6485 38.9289 92.6108 39.0828C93.4275 39.2147 94.0877 40.0498 93.987 40.885C93.0024 40.885 92.0066 40.885 91.0219 40.896ZM91.0219 40.5223H93.5842C93.5059 39.874 92.98 39.4125 92.3199 39.4015C91.6373 39.4015 91.1115 39.841 91.0108 40.5223H91.0219Z" fill="#212121"/>
<path d="M160.448 40.8852H157.517C157.483 41.4017 157.83 41.8632 158.345 42.05C158.971 42.2698 159.531 42.05 160.023 41.3577H160.336C160.213 42.05 159.318 42.5775 158.524 42.4456C157.528 42.2808 156.913 41.4017 157.103 40.4017C157.259 39.5226 158.166 38.9291 159.106 39.072C159.934 39.2039 160.582 40.05 160.459 40.8742L160.448 40.8852ZM160.068 40.5225C159.978 39.7863 159.352 39.3248 158.613 39.4017C158.009 39.4676 157.483 40.0061 157.539 40.5225H160.068Z" fill="#212121"/>
<path d="M125.819 39.6752C125.841 39.4554 125.852 39.3235 125.875 39.1697H126.21V42.3345C126.21 42.3345 126.143 42.3785 126.11 42.3785C126.042 42.3785 125.964 42.3785 125.886 42.3675C125.863 42.2137 125.852 42.0708 125.819 41.862C125.338 42.3675 124.789 42.5543 124.152 42.4225C123.704 42.3345 123.346 42.1148 123.077 41.7631C122.574 41.1148 122.641 40.1367 123.234 39.5543C123.592 39.2027 124.028 39.0488 124.543 39.0488C125.047 39.0488 125.449 39.2466 125.83 39.6642L125.819 39.6752ZM125.863 40.7741C125.863 40.0049 125.259 39.4005 124.487 39.4005C123.704 39.4005 123.111 39.9939 123.111 40.7741C123.111 41.5433 123.726 42.1367 124.51 42.1258C125.259 42.1258 125.863 41.5214 125.863 40.7741Z" fill="#212121"/>
<path d="M73.1187 42.3685H72.7383V38.0059H73.1075V41.1048C73.2306 40.9949 73.2977 40.9509 73.3425 40.885C73.7229 40.4015 74.1033 39.9289 74.4614 39.4344C74.6292 39.2037 74.8082 39.0718 75.1663 39.1707C74.7746 39.7201 74.3271 40.2147 73.9131 40.7751C74.3495 41.2916 74.7746 41.7971 75.2334 42.3465C74.9425 42.4344 74.7523 42.3905 74.5844 42.1817C74.3047 41.83 74.0026 41.4894 73.6893 41.1377C73.2642 41.4564 73.018 41.83 73.1075 42.3795L73.1187 42.3685Z" fill="#212121"/>
<path d="M62.5455 42.369H62.1875V38.0283C62.1875 38.0283 62.2211 37.9844 62.2323 37.9844C62.3106 37.9844 62.4001 37.9844 62.4896 37.9844C62.6015 38.4679 62.4672 38.9624 62.5791 39.4789C62.8924 39.1712 63.2281 39.0393 63.642 39.0503C64.3805 39.0723 64.9399 39.4789 64.9959 40.1932C65.063 40.8965 65.0071 41.6217 65.0071 42.358C64.9064 42.358 64.8057 42.358 64.705 42.369C64.6826 42.3031 64.6602 42.2591 64.6602 42.2151C64.6602 41.7206 64.6602 41.2151 64.6602 40.7206C64.6602 40.5448 64.6379 40.358 64.6043 40.1822C64.4924 39.6767 64.0784 39.38 63.5525 39.391C63.049 39.402 62.6574 39.7206 62.5791 40.2261C62.5344 40.5118 62.5455 40.8085 62.5344 41.0943C62.5344 41.5009 62.5344 41.9184 62.5344 42.358L62.5455 42.369Z" fill="#212121"/>
<path d="M127.732 37.9941H128.067V41.115C128.202 40.9941 128.269 40.9392 128.325 40.8733C128.716 40.3788 129.108 39.8952 129.466 39.3897C129.634 39.159 129.824 39.0821 130.137 39.181C129.723 39.7084 129.309 40.2249 128.873 40.7744C129.309 41.2908 129.746 41.7963 130.182 42.3128C129.835 42.4447 129.779 42.4337 129.567 42.1919C129.265 41.8403 128.963 41.4886 128.649 41.115C128.269 41.4667 127.956 41.8073 128.067 42.3678C127.933 42.3678 127.844 42.3788 127.754 42.3897C127.665 42.115 127.631 38.6095 127.721 38.0051L127.732 37.9941Z" fill="#212121"/>
<path d="M68.789 39.4991C69.1246 39.1365 69.4939 39.0376 69.9191 39.0595C70.5904 39.0925 71.0939 39.4991 71.2058 40.1584C71.2617 40.4771 71.2505 40.8068 71.2617 41.1365C71.2617 41.5321 71.2617 41.9277 71.2617 42.3562C71.1163 42.3562 71.0156 42.3672 70.9149 42.3782C70.8925 42.3123 70.8701 42.2793 70.8701 42.2464C70.8701 41.7079 70.8701 41.1804 70.8701 40.642C70.8701 40.4771 70.8477 40.3013 70.803 40.1365C70.6687 39.6529 70.2995 39.3782 69.796 39.3892C69.3037 39.3892 68.9233 39.6749 68.8002 40.1584C68.7666 40.3123 68.7554 40.4661 68.7554 40.631C68.7554 41.0815 68.7554 41.5321 68.7554 41.9826C68.7554 42.1035 68.7554 42.2244 68.733 42.3562H68.375V39.1584C68.4869 39.1584 68.5876 39.1474 68.7107 39.1365C68.733 39.2464 68.7554 39.3343 68.789 39.4991Z" fill="#212121"/>
<path d="M162.194 42.3685H161.892C161.802 42.0937 161.78 39.5773 161.869 39.1597C161.959 39.1597 162.049 39.1597 162.172 39.1487C162.194 39.2586 162.205 39.3575 162.228 39.4674C162.283 39.4344 162.328 39.4344 162.351 39.4124C162.798 38.9839 163.335 38.9729 163.872 39.1707C164.421 39.3685 164.667 39.83 164.7 40.3685C164.734 41.0168 164.7 41.6762 164.7 42.3685C164.588 42.3685 164.488 42.3905 164.376 42.4014C164.353 42.3245 164.32 42.2586 164.32 42.2036C164.32 41.6981 164.32 41.1817 164.32 40.6762C164.32 40.4674 164.297 40.2586 164.23 40.0718C164.085 39.6432 163.704 39.4014 163.223 39.4124C162.776 39.4234 162.407 39.6872 162.283 40.1047C162.228 40.2806 162.205 40.4674 162.205 40.6432C162.205 41.0937 162.205 41.5443 162.205 41.9948C162.205 42.1157 162.205 42.2366 162.205 42.3905L162.194 42.3685Z" fill="#212121"/>
<path d="M105.254 42.3673H104.918C104.907 42.2574 104.884 42.1695 104.884 42.0706C104.884 41.6421 104.884 41.2245 104.884 40.7959C104.884 40.5981 104.862 40.4113 104.828 40.2135C104.728 39.697 104.325 39.3893 103.799 39.4003C103.273 39.4003 102.893 39.719 102.792 40.2465C102.758 40.4223 102.747 40.6091 102.747 40.7849C102.747 41.2904 102.747 41.8069 102.747 42.3563C102.624 42.3673 102.523 42.3783 102.4 42.3893V39.1695C102.49 39.1695 102.579 39.1476 102.702 39.1476C102.736 39.2574 102.758 39.3563 102.792 39.4662C102.837 39.4552 102.882 39.4443 102.904 39.4223C103.363 38.9827 103.911 38.9717 104.459 39.1805C104.996 39.3893 105.242 39.8399 105.265 40.3893C105.287 41.0377 105.265 41.675 105.265 42.3673H105.254Z" fill="#212121"/>
<path d="M60.0625 42.3905C59.8835 42.3905 59.7828 42.3795 59.6373 42.3685V38.3465H58.6303C58.6303 38.2146 58.6303 38.1157 58.6191 38.0059H61.0695C61.0695 38.0938 61.0807 38.1927 61.0919 38.3465H60.0737V42.4015L60.0625 42.3905Z" fill="#212121"/>
<path d="M146.551 37.918C146.562 37.9839 146.584 38.0169 146.584 38.0498C146.584 38.0938 146.584 38.1487 146.584 38.2147C146.327 38.3026 146.014 38.3246 145.868 38.6103C145.801 38.7531 145.779 38.929 145.712 39.1377H146.562C146.562 39.2696 146.573 39.3575 146.584 39.4784C146.305 39.4894 146.059 39.5004 145.756 39.5114V42.3685H145.354V39.5224C145.163 39.5004 145.029 39.4894 144.861 39.4674V39.1707C145.018 39.1597 145.163 39.1487 145.32 39.1377C145.41 38.7751 145.398 38.3685 145.768 38.1377C146.003 37.9839 146.26 37.918 146.562 37.9399L146.551 37.918Z" fill="#212121"/>
<path d="M149.102 37.9395V38.1482C148.845 38.3021 148.61 38.401 148.431 38.5768C148.319 38.6867 148.308 38.8955 148.229 39.1263C148.554 39.1373 148.8 39.1482 149.08 39.1702C149.08 39.2691 149.102 39.357 149.113 39.4779C148.833 39.4889 148.587 39.4999 148.296 39.5219V42.379C148.151 42.39 148.039 42.401 147.882 42.412V39.5329C147.703 39.5109 147.569 39.4999 147.401 39.4889C147.401 39.401 147.39 39.3021 147.379 39.1922C147.558 39.1702 147.703 39.1592 147.86 39.1482C147.95 38.7746 147.95 38.379 148.319 38.1373C148.531 38.0054 148.778 37.9395 149.124 37.9614L149.102 37.9395Z" fill="#212121"/>
<path d="M86.2877 42.3683H85.9073V39.5112C85.7171 39.4892 85.5828 39.4782 85.415 39.4562C85.415 39.3573 85.4038 39.2694 85.3926 39.1595C85.5604 39.1485 85.7059 39.1376 85.8849 39.1156C85.9632 38.7419 85.9632 38.3244 86.3436 38.0936C86.5674 37.9617 86.8136 37.8848 87.1045 37.9178C87.1157 38.0167 87.1268 38.1046 87.138 38.2035C86.8583 38.3024 86.5562 38.3244 86.4108 38.6101C86.3324 38.7639 86.2653 38.9178 86.3436 39.1376H87.1157V39.4562C86.8583 39.4672 86.601 39.4782 86.2989 39.5002C86.2765 40.4562 86.2989 41.3903 86.2877 42.3683Z" fill="#212121"/>
<path d="M167.731 39.4891H166.959C166.903 40.4562 166.959 41.3902 166.925 42.3573H166.545V39.5001C166.299 39.4891 166.108 39.4782 165.885 39.4672C165.873 39.3683 165.862 39.2804 165.84 39.1595C166.064 39.1485 166.276 39.1265 166.522 39.1155V38.0056C166.668 38.0056 166.78 37.9836 166.925 37.9727V39.1155C167.194 39.1265 167.429 39.1375 167.697 39.1595C167.697 39.2474 167.708 39.3463 167.72 39.4891H167.731Z" fill="#212121"/>
<path d="M88.8273 42.3688H88.4469V39.5226C88.2678 39.5007 88.1336 39.4787 87.9657 39.4677C87.9657 39.3798 87.9545 39.2809 87.9434 39.171C88.1112 39.16 88.2455 39.149 88.4133 39.127C88.4804 38.7424 88.4916 38.3139 88.9056 38.0941C89.1294 37.9732 89.3755 37.8963 89.6664 37.9402C89.6664 38.0391 89.6664 38.127 89.6776 38.215C88.9615 38.4457 88.8161 38.5996 88.8608 39.16H89.6441C89.6441 39.2699 89.6664 39.3578 89.6776 39.4897H88.8497C88.7825 39.8303 88.8161 40.149 88.8161 40.4567C88.8161 40.7754 88.8161 41.0831 88.8161 41.4018V42.3908L88.8273 42.3688Z" fill="#212121"/>
<path d="M107.077 39.5009C106.842 39.4899 106.64 39.4789 106.416 39.4679C106.416 39.369 106.394 39.2811 106.383 39.1602C106.607 39.1492 106.819 39.1272 107.077 39.1162V38.0064C107.233 38.0064 107.334 37.9954 107.479 37.9844V39.1162C107.759 39.1272 108.005 39.1492 108.251 39.1602V39.4679C107.994 39.4789 107.77 39.4899 107.479 39.5009C107.457 39.9844 107.479 40.4569 107.479 40.9184C107.479 41.391 107.479 41.8635 107.479 42.358C107.356 42.358 107.267 42.369 107.132 42.38C107.054 41.4239 107.144 40.4789 107.077 39.4899V39.5009Z" fill="#212121"/>
<path d="M95.7096 42.3685H95.3516V39.1707C95.4635 39.1707 95.5641 39.1487 95.6872 39.1377C95.7208 39.2586 95.7432 39.3575 95.7655 39.4674C96.0937 39.2183 96.3772 39.0938 96.6159 39.0938C96.6681 39.3062 96.601 39.4417 96.4145 39.5003C95.9446 39.6542 95.7432 39.9179 95.732 40.4234C95.732 40.9399 95.732 41.4674 95.732 41.9839C95.732 42.1047 95.732 42.2146 95.7096 42.3575V42.3685Z" fill="#212121"/>
<path d="M154.775 39.159H155.122C155.145 39.2579 155.167 39.3568 155.212 39.4996C155.469 39.2469 155.704 39.0381 156.084 39.0821V39.4227C155.301 39.6864 155.167 39.8733 155.167 40.6974C155.167 41.126 155.167 41.5436 155.167 41.9722C155.167 42.093 155.156 42.2139 155.145 42.3458C155.033 42.3458 154.932 42.3568 154.798 42.3678C154.764 41.2799 154.798 40.2249 154.787 39.148L154.775 39.159Z" fill="#212121"/>
<path d="M143.328 39.1602H143.663V42.325C143.663 42.325 143.596 42.3689 143.563 42.3799C143.496 42.3799 143.417 42.3799 143.35 42.3799C143.261 42.1162 143.249 39.5997 143.328 39.1711V39.1602Z" fill="#212121"/>
<path d="M66.8864 42.3799C66.7522 42.3799 66.6627 42.3689 66.5508 42.358V39.1602H66.8864V42.3689V42.3799Z" fill="#212121"/>
<path d="M83.8828 39.1602H84.1625C84.2409 39.2481 84.2744 41.4569 84.2073 42.358C84.1178 42.358 84.0171 42.3799 83.8828 42.3909V39.1602Z" fill="#212121"/>
<path d="M111.496 40.8624V40.5547H113.074C113.074 40.6536 113.085 40.7415 113.096 40.8624H111.496Z" fill="#212121"/>
<path d="M143.654 38.676H143.318V38.0056C143.419 38.0056 143.531 37.9836 143.654 37.9727V38.676Z" fill="#212121"/>
<path d="M83.8711 38.6542V38.0059H84.1956V38.6542H83.8711Z" fill="#212121"/>
<path d="M66.5508 38.6542V38.0059H66.8753V38.6542H66.5508Z" fill="#212121"/>
</g>
<defs>
<clipPath id="clip0_315_644">
<rect width="168" height="57" fill="white" transform="translate(0 0.5)"/>
</clipPath>
</defs>
</svg>
